<svg width="16" height="16" viewBox="0 0 16 16" fill="none" xmlns="http://www.w3.org/2000/svg">
<path d="M6.50013 16C6.34211 16.0008 6.18761 15.9534 6.05727 15.864C5.92693 15.7747 5.82697 15.6477 5.77073 15.5L4.5257 12.2625C4.50048 12.1972 4.46191 12.138 4.41245 12.0885C4.36299 12.0391 4.30374 12.0005 4.2385 11.9753L0.99997 10.7293C0.852448 10.6727 0.725562 10.5727 0.636058 10.4425C0.546554 10.3123 0.498641 10.158 0.498641 9.99996C0.498641 9.84195 0.546554 9.68766 0.636058 9.55744C0.725562 9.42722 0.852448 9.3272 0.99997 9.27058L4.23756 8.02558C4.3028 8.00036 4.36205 7.96179 4.41151 7.91233C4.46097 7.86287 4.49954 7.80363 4.52476 7.73839L5.77073 4.49994C5.82735 4.35242 5.92737 4.22553 6.05759 4.13603C6.18781 4.04653 6.34211 3.99862 6.50013 3.99862C6.65814 3.99862 6.81244 4.04653 6.94266 4.13603C7.07288 4.22553 7.17291 4.35242 7.22952 4.49994L8.47456 7.73745C8.49978 7.80269 8.53835 7.86194 8.58781 7.91139C8.63727 7.96085 8.69652 7.99942 8.76176 8.02464L11.9806 9.26308C12.1341 9.31999 12.2664 9.42282 12.3594 9.55758C12.4524 9.69234 12.5016 9.85249 12.5003 10.0162C12.4979 10.1715 12.449 10.3224 12.3598 10.4496C12.2707 10.5767 12.1454 10.6742 12.0003 10.7293L8.76269 11.9743C8.69745 11.9996 8.6382 12.0381 8.58875 12.0876C8.53929 12.137 8.50071 12.1963 8.4755 12.2615L7.22952 15.5C7.17329 15.6477 7.07333 15.7747 6.94299 15.864C6.81265 15.9534 6.65815 16.0008 6.50013 16Z" fill="white"/>
<path d="M2.75002 5.49994C2.65738 5.49994 2.56691 5.47186 2.49054 5.41943C2.41417 5.36699 2.35548 5.29264 2.3222 5.20619L1.79531 3.83618C1.78389 3.80622 1.76626 3.77901 1.74359 3.75634C1.72091 3.73366 1.6937 3.71604 1.66374 3.70462L0.293699 3.17774C0.207253 3.14445 0.132919 3.08576 0.0804908 3.00939C0.0280626 2.93302 0 2.84256 0 2.74993C0 2.65729 0.0280626 2.56683 0.0804908 2.49047C0.132919 2.4141 0.207253 2.3554 0.293699 2.32211L1.66374 1.79523C1.69367 1.78376 1.72086 1.76612 1.74352 1.74345C1.76619 1.72079 1.78383 1.6936 1.79531 1.66367L2.31751 0.305853C2.34696 0.225915 2.39764 0.155515 2.46409 0.102217C2.53055 0.0489191 2.61028 0.0147393 2.69471 0.00335109C2.79607 -0.00897078 2.89864 0.0128976 2.98616 0.0654887C3.07369 0.11808 3.14115 0.198383 3.17785 0.293665L3.70474 1.66367C3.71621 1.6936 3.73385 1.72079 3.75652 1.74345C3.77918 1.76612 3.80637 1.78376 3.8363 1.79523L5.20634 2.32211C5.29279 2.3554 5.36712 2.4141 5.41955 2.49047C5.47198 2.56683 5.50004 2.65729 5.50004 2.74993C5.50004 2.84256 5.47198 2.93302 5.41955 3.00939C5.36712 3.08576 5.29279 3.14445 5.20634 3.17774L3.8363 3.70462C3.80634 3.71604 3.77913 3.73366 3.75645 3.75634C3.73378 3.77901 3.71616 3.80622 3.70474 3.83618L3.17785 5.20619C3.14456 5.29264 3.08587 5.36699 3.0095 5.41943C2.93313 5.47186 2.84266 5.49994 2.75002 5.49994Z" fill="white"/>
<path d="M12.5003 7.99995C12.3992 7.99992 12.3006 7.96927 12.2173 7.91203C12.134 7.85479 12.07 7.77366 12.0337 7.67933L11.32 5.824C11.3074 5.79131 11.2881 5.76162 11.2633 5.73686C11.2386 5.71209 11.2089 5.69281 11.1762 5.68025L9.32084 4.9665C9.22657 4.93018 9.14553 4.86616 9.08836 4.78288C9.0312 4.69959 9.0006 4.60095 9.0006 4.49994C9.0006 4.39892 9.0312 4.30028 9.08836 4.21699C9.14553 4.13371 9.22657 4.06969 9.32084 4.03337L11.1762 3.31962C11.2089 3.30706 11.2386 3.28778 11.2633 3.26301C11.2881 3.23825 11.3074 3.20856 11.32 3.17587L12.0284 1.33367C12.0608 1.24655 12.1161 1.16983 12.1886 1.11167C12.2611 1.05351 12.3479 1.01607 12.44 1.00336C12.5506 0.989967 12.6625 1.0139 12.758 1.07137C12.8534 1.12883 12.9269 1.21653 12.9669 1.32054L13.6806 3.17587C13.6932 3.20856 13.7125 3.23825 13.7373 3.26301C13.762 3.28778 13.7917 3.30706 13.8244 3.31962L15.6798 4.03337C15.774 4.06969 15.8551 4.13371 15.9122 4.21699C15.9694 4.30028 16 4.39892 16 4.49994C16 4.60095 15.9694 4.69959 15.9122 4.78288C15.8551 4.86616 15.774 4.93018 15.6798 4.9665L13.8244 5.68025C13.7917 5.69281 13.762 5.71209 13.7373 5.73686C13.7125 5.76162 13.6932 5.79131 13.6806 5.824L12.9669 7.67933C12.9306 7.77366 12.8666 7.85479 12.7833 7.91203C12.7 7.96927 12.6014 7.99992 12.5003 7.99995Z" fill="white"/>
</svg>
